<svg xmlns="http://www.w3.org/2000/svg" xmlns:xlink="http://www.w3.org/1999/xlink" width="500" zoomAndPan="magnify" viewBox="0 0 375 374.999991" height="500" preserveAspectRatio="xMidYMid meet" version="1.0"><defs><g/><clipPath id="8c9e440681"><path d="M 67.625 112.589844 L 187.617188 112.589844 L 187.617188 262.40625 L 67.625 262.40625 Z M 67.625 112.589844 " clip-rule="nonzero"/></clipPath><clipPath id="0510cd35ef"><path d="M 156.464844 179.699219 L 271.894531 179.699219 L 271.894531 208.996094 L 156.464844 208.996094 Z M 156.464844 179.699219 " clip-rule="nonzero"/></clipPath><clipPath id="3aac667384"><path d="M 243.3125 179.699219 C 258.847656 179.699219 271.4375 186.179688 271.4375 194.171875 C 271.4375 202.167969 258.847656 208.648438 243.3125 208.648438 L 184.589844 208.648438 C 169.058594 208.648438 156.464844 202.167969 156.464844 194.171875 C 156.464844 186.179688 169.058594 179.699219 184.589844 179.699219 L 243.3125 179.699219 " clip-rule="nonzero"/></clipPath></defs><g clip-path="url(#8c9e440681)"><path fill="#247b7b" d="M 162.730469 252.355469 C 126.871094 252.355469 97.804688 223.320312 97.804688 187.496094 C 97.804688 151.675781 126.871094 122.640625 162.730469 122.640625 C 171.546875 122.640625 179.953125 124.398438 187.617188 127.578125 C 175.082031 118.167969 159.5 112.589844 142.613281 112.589844 C 101.199219 112.589844 67.625 146.125 67.625 187.496094 C 67.625 228.867188 101.199219 262.40625 142.613281 262.40625 C 159.5 262.40625 175.082031 256.828125 187.617188 247.417969 C 179.953125 250.597656 171.546875 252.355469 162.730469 252.355469 " fill-opacity="1" fill-rule="nonzero"/></g><path fill="#247b7b" d="M 142.613281 228.90625 C 119.71875 228.90625 101.160156 210.367188 101.160156 187.496094 C 101.160156 164.628906 119.71875 146.089844 142.613281 146.089844 C 150.214844 146.089844 157.339844 148.136719 163.464844 151.703125 L 176.464844 138.722656 C 168.289062 134.1875 159.054688 131.773438 149.449219 131.773438 C 134.546875 131.773438 120.539062 137.570312 110.003906 148.09375 C 99.46875 158.621094 93.664062 172.613281 93.664062 187.496094 C 93.664062 196.125 95.617188 204.449219 99.304688 211.976562 L 99.3125 211.988281 C 99.632812 212.640625 99.960938 213.28125 100.308594 213.921875 L 100.300781 213.894531 C 102.847656 218.621094 106.097656 223 110.003906 226.902344 C 120.539062 237.425781 134.546875 243.222656 149.449219 243.222656 C 159.054688 243.222656 168.289062 240.808594 176.464844 236.273438 L 163.464844 223.292969 C 157.339844 226.859375 150.214844 228.90625 142.613281 228.90625 " fill-opacity="1" fill-rule="nonzero"/><g clip-path="url(#0510cd35ef)"><g clip-path="url(#3aac667384)"><path fill="#247b7b" d="M 156.464844 179.699219 L 271.308594 179.699219 L 271.308594 208.410156 L 156.464844 208.410156 Z M 156.464844 179.699219 " fill-opacity="1" fill-rule="nonzero"/></g></g><g fill="#ffb100" fill-opacity="1"><g transform="translate(103.603255, 214.198229)"><g><path d="M 50.203125 -70.203125 L 50.203125 -22.40625 C 50.203125 -15 48.117188 -9.296875 43.953125 -5.296875 C 39.785156 -1.296875 34.164062 0.703125 27.09375 0.703125 C 19.695312 0.703125 13.765625 -1.394531 9.296875 -5.59375 C 4.828125 -9.800781 2.59375 -15.769531 2.59375 -23.5 L 19.59375 -23.5 C 19.59375 -20.5625 20.191406 -18.34375 21.390625 -16.84375 C 22.597656 -15.34375 24.332031 -14.59375 26.59375 -14.59375 C 28.664062 -14.59375 30.265625 -15.257812 31.390625 -16.59375 C 32.523438 -17.925781 33.09375 -19.863281 33.09375 -22.40625 L 33.09375 -70.203125 Z M 50.203125 -70.203125 "/></g></g></g><g fill="#78cdd7" fill-opacity="1"><g transform="translate(138.92544, 231.274437)"><g><path d="M 31.59375 0.703125 C 26.46875 0.703125 21.867188 -0.128906 17.796875 -1.796875 C 13.734375 -3.460938 10.484375 -5.925781 8.046875 -9.1875 C 5.617188 -12.457031 4.335938 -16.394531 4.203125 -21 L 22.40625 -21 C 22.664062 -18.394531 23.5625 -16.410156 25.09375 -15.046875 C 26.632812 -13.679688 28.632812 -13 31.09375 -13 C 33.632812 -13 35.632812 -13.582031 37.09375 -14.75 C 38.5625 -15.914062 39.296875 -17.53125 39.296875 -19.59375 C 39.296875 -21.332031 38.710938 -22.765625 37.546875 -23.890625 C 36.378906 -25.023438 34.945312 -25.957031 33.25 -26.6875 C 31.550781 -27.425781 29.132812 -28.265625 26 -29.203125 C 21.46875 -30.597656 17.765625 -31.992188 14.890625 -33.390625 C 12.023438 -34.796875 9.5625 -36.863281 7.5 -39.59375 C 5.4375 -42.332031 4.40625 -45.898438 4.40625 -50.296875 C 4.40625 -56.828125 6.769531 -61.941406 11.5 -65.640625 C 16.226562 -69.347656 22.394531 -71.203125 30 -71.203125 C 37.726562 -71.203125 43.957031 -69.347656 48.6875 -65.640625 C 53.425781 -61.941406 55.960938 -56.796875 56.296875 -50.203125 L 37.796875 -50.203125 C 37.660156 -52.460938 36.828125 -54.242188 35.296875 -55.546875 C 33.765625 -56.847656 31.800781 -57.5 29.40625 -57.5 C 27.332031 -57.5 25.660156 -56.945312 24.390625 -55.84375 C 23.128906 -54.75 22.5 -53.164062 22.5 -51.09375 C 22.5 -48.832031 23.566406 -47.066406 25.703125 -45.796875 C 27.835938 -44.535156 31.171875 -43.171875 35.703125 -41.703125 C 40.234375 -40.171875 43.914062 -38.703125 46.75 -37.296875 C 49.582031 -35.898438 52.03125 -33.867188 54.09375 -31.203125 C 56.164062 -28.535156 57.203125 -25.101562 57.203125 -20.90625 C 57.203125 -16.90625 56.179688 -13.269531 54.140625 -10 C 52.109375 -6.726562 49.160156 -4.125 45.296875 -2.1875 C 41.429688 -0.257812 36.863281 0.703125 31.59375 0.703125 Z M 31.59375 0.703125 "/></g></g></g><g fill="#000000" fill-opacity="1"><g transform="translate(138.948878, 203.149439)"><g><path d="M 10.257812 -2.019531 L 3.757812 -2.019531 L 3.757812 -6.136719 L 10.097656 -6.136719 L 10.097656 -8.179688 L 3.757812 -8.179688 L 3.757812 -12.117188 L 10.238281 -12.117188 L 10.238281 -14.136719 L 1.71875 -14.136719 L 1.71875 0 L 10.257812 0 Z M 10.257812 -2.019531 "/></g></g></g><g fill="#000000" fill-opacity="1"><g transform="translate(150.093408, 203.149439)"><g/></g></g><g fill="#000000" fill-opacity="1"><g transform="translate(155.071439, 203.149439)"><g/></g></g><g fill="#000000" fill-opacity="1"><g transform="translate(160.04947, 203.149439)"><g/></g></g><g fill="#000000" fill-opacity="1"><g transform="translate(165.027501, 203.149439)"><g/></g></g><g fill="#000000" fill-opacity="1"><g transform="translate(170.005532, 203.149439)"><g/></g></g><g fill="#000000" fill-opacity="1"><g transform="translate(174.983562, 203.149439)"><g/></g></g><g fill="#000000" fill-opacity="1"><g transform="translate(179.961593, 203.149439)"><g/></g></g><g fill="#000000" fill-opacity="1"><g transform="translate(184.93325, 203.149439)"><g><path d="M 4.359375 -12.21875 L 4.359375 0 L 6.378906 0 L 6.378906 -12.21875 L 10.597656 -12.21875 L 10.597656 -14.136719 L 0.121094 -14.136719 L 0.121094 -12.21875 Z M 4.359375 -12.21875 "/></g></g></g><g fill="#000000" fill-opacity="1"><g transform="translate(195.669009, 203.149439)"><g><path d="M 6.71875 0.140625 C 9.117188 0.140625 11.878906 -1.339844 11.878906 -4.179688 L 11.878906 -14.136719 L 9.835938 -14.136719 L 9.835938 -4.199219 C 9.835938 -2.660156 8.179688 -1.878906 6.71875 -1.878906 C 5.238281 -1.878906 3.578125 -2.640625 3.578125 -4.179688 L 3.578125 -14.136719 L 1.539062 -14.136719 L 1.539062 -4.199219 C 1.539062 -1.339844 4.257812 0.140625 6.71875 0.140625 Z M 6.71875 0.140625 "/></g></g></g><g fill="#000000" fill-opacity="1"><g transform="translate(209.083715, 203.149439)"><g><path d="M 6.738281 -14.117188 L 1.71875 -14.117188 L 1.71875 0 L 6.738281 0 C 11.316406 0 13.617188 -3.480469 13.617188 -6.976562 C 13.617188 -10.476562 11.316406 -14.117188 6.738281 -14.117188 Z M 6.738281 -2.019531 L 3.738281 -2.019531 L 3.738281 -12.097656 L 6.738281 -12.097656 C 9.976562 -12.097656 11.617188 -9.457031 11.617188 -6.976562 C 11.617188 -4.5 9.976562 -2.019531 6.738281 -2.019531 Z M 6.738281 -2.019531 "/></g></g></g><g fill="#000000" fill-opacity="1"><g transform="translate(223.577999, 203.149439)"><g><path d="M 0.699219 -7 C 0.699219 -2.960938 3.917969 0.261719 7.957031 0.261719 C 11.996094 0.261719 15.234375 -2.960938 15.234375 -7 C 15.234375 -11.039062 11.996094 -14.277344 7.957031 -14.277344 C 3.917969 -14.277344 0.699219 -11.039062 0.699219 -7 Z M 2.78125 -7 C 2.78125 -9.878906 5.078125 -12.195312 7.957031 -12.195312 C 10.835938 -12.195312 13.15625 -9.878906 13.15625 -7 C 13.15625 -4.117188 10.835938 -1.820312 7.957031 -1.820312 C 5.078125 -1.820312 2.78125 -4.117188 2.78125 -7 Z M 2.78125 -7 "/></g></g></g><g fill="#000000" fill-opacity="1"><g transform="translate(239.65166, 203.149439)"><g><path d="M 8.71875 -10.378906 L 10.71875 -10.457031 C 10.355469 -13.015625 8.117188 -14.136719 5.957031 -14.136719 C 4.339844 -14.136719 2.660156 -13.496094 1.71875 -12.277344 C 1.199219 -11.597656 0.941406 -10.796875 0.941406 -9.957031 C 0.941406 -9.859375 0.960938 -9.738281 0.960938 -9.617188 L 0.960938 -9.636719 C 1.179688 -6.71875 3.738281 -6.238281 5.917969 -6.019531 C 7.316406 -5.878906 8.757812 -5.699219 8.996094 -4.640625 C 9.039062 -4.457031 9.058594 -4.300781 9.058594 -4.160156 C 9.058594 -2.71875 7.417969 -1.878906 5.917969 -1.878906 C 4.617188 -1.878906 3.039062 -2.558594 2.898438 -3.859375 L 2.898438 -3.777344 L 2.878906 -4.078125 L 0.839844 -4.039062 L 0.859375 -3.660156 C 1.121094 -1.160156 3.738281 0.121094 5.898438 0.121094 C 8.417969 0.121094 11.097656 -1.441406 11.097656 -4.140625 C 11.097656 -4.417969 11.058594 -4.757812 10.996094 -5.058594 C 10.457031 -7.296875 8.078125 -7.796875 6.160156 -8.039062 C 4.597656 -8.179688 2.980469 -8.378906 2.980469 -9.996094 C 2.980469 -10.398438 3.078125 -10.796875 3.320312 -11.097656 C 3.898438 -11.835938 4.957031 -12.15625 5.917969 -12.15625 C 7.117188 -12.15625 8.4375 -11.617188 8.71875 -10.378906 Z M 8.71875 -10.378906 "/></g></g></g></svg>